# xmcd
#
# Track frame offsets: 
#        150
#        13265
#        24418
#        39174
#        56149
#        70546
#        86970
#        100706
#        109406
#        123188
#        136934
#        146927
#        162049
#        175055
#        187510
#
# Disc length: 2673 seconds
#
# Revision: 0
# Processed by: cddbd v1.5.2PL0 Copyright (c) Steve Scherf et al.
# Submitted via: ExactAudioCopy v0.99pb5
#
DISCID=c00a6f0f
DTITLE=Геннадий Перевалов - Избранное, т.4
DYEAR=2000
DGENRE=Chanson
TTITLE0=Ох, где ж я был...
TTITLE1=Играю в карты, пью вино...
TTITLE2=Над городом светает
TTITLE3=Гурзуф...рассвет
TTITLE4=В лепетанье ручейка
TTITLE5=Сосны
TTITLE6=Коротка у счастья память
TTITLE7=Весна напрасно...
TTITLE8=Осенний город
TTITLE9=Я думал о судьбе царя
TTITLE10=Творчество
TTITLE11=Индия
TTITLE12=Сжимается сердце
TTITLE13=Мальчишки
TTITLE14=Синее небо вдаль...
EXTD=
EXTT0=
EXTT1=
EXTT2=
EXTT3=
EXTT4=
EXTT5=
EXTT6=
EXTT7=
EXTT8=
EXTT9=
EXTT10=
EXTT11=
EXTT12=
EXTT13=
EXTT14=
PLAYORDER=
